<mxfile host="app.diagrams.net" modified="2024-04-05T16:24:22.812Z" agent="Mozilla/5.0 (X11; Linux x86_64) AppleWebKit/537.36 (KHTML, like Gecko) Chrome/123.0.0.0 Safari/537.36" etag="JspReG4WEdTgL0ew1SW4" version="24.2.2" type="google">
  <diagram name="Page-1" id="wZglTM9HCwDDL1SL_Teq">
    <mxGraphModel grid="1" page="1" gridSize="10" guides="1" tooltips="1" connect="1" arrows="1" fold="1" pageScale="1" pageWidth="827" pageHeight="1169" math="0" shadow="0">
      <root>
        <mxCell id="0" />
        <mxCell id="1" parent="0" />
        <mxCell id="kZlUlrs9YMxouuJOMNI7-45" style="edgeStyle=none;curved=1;rounded=0;orthogonalLoop=1;jettySize=auto;html=1;exitX=0;exitY=1;exitDx=0;exitDy=0;entryX=0.75;entryY=1;entryDx=0;entryDy=0;fontSize=12;startSize=8;endSize=8;strokeWidth=3;" edge="1" parent="1" source="kZlUlrs9YMxouuJOMNI7-31" target="kZlUlrs9YMxouuJOMNI7-29">
          <mxGeometry relative="1" as="geometry">
            <Array as="points">
              <mxPoint x="1270" y="330" />
            </Array>
          </mxGeometry>
        </mxCell>
        <mxCell id="kZlUlrs9YMxouuJOMNI7-31" value="&lt;font style=&quot;font-size: 19px;&quot;&gt;&lt;b&gt;Stage 3&lt;/b&gt;&lt;/font&gt;" style="rounded=0;whiteSpace=wrap;html=1;fillColor=#f5f5f5;strokeColor=#666666;align=left;verticalAlign=top;fontColor=#333333;" vertex="1" parent="1">
          <mxGeometry x="1400" y="-75" width="530" height="235" as="geometry" />
        </mxCell>
        <mxCell id="kZlUlrs9YMxouuJOMNI7-37" style="edgeStyle=none;curved=1;rounded=0;orthogonalLoop=1;jettySize=auto;html=1;fontSize=12;startSize=8;endSize=8;strokeWidth=3;" edge="1" parent="1" source="kZlUlrs9YMxouuJOMNI7-30" target="kZlUlrs9YMxouuJOMNI7-29">
          <mxGeometry relative="1" as="geometry" />
        </mxCell>
        <mxCell id="kZlUlrs9YMxouuJOMNI7-30" value="&lt;font style=&quot;font-size: 19px;&quot;&gt;&lt;b&gt;Stage 1&lt;/b&gt;&lt;/font&gt;" style="rounded=0;whiteSpace=wrap;html=1;fillColor=#f5f5f5;strokeColor=#666666;align=left;verticalAlign=top;labelPosition=center;verticalLabelPosition=middle;fontColor=#333333;" vertex="1" parent="1">
          <mxGeometry x="890.5" y="-420" width="219" height="250" as="geometry" />
        </mxCell>
        <mxCell id="kZlUlrs9YMxouuJOMNI7-44" style="edgeStyle=none;curved=1;rounded=0;orthogonalLoop=1;jettySize=auto;html=1;exitX=0.75;exitY=0;exitDx=0;exitDy=0;entryX=0;entryY=0;entryDx=0;entryDy=0;fontSize=12;startSize=8;endSize=8;strokeWidth=3;" edge="1" parent="1" source="kZlUlrs9YMxouuJOMNI7-29" target="kZlUlrs9YMxouuJOMNI7-31">
          <mxGeometry relative="1" as="geometry">
            <Array as="points">
              <mxPoint x="1240" y="-270" />
            </Array>
          </mxGeometry>
        </mxCell>
        <mxCell id="kZlUlrs9YMxouuJOMNI7-47" style="edgeStyle=none;curved=1;rounded=0;orthogonalLoop=1;jettySize=auto;html=1;fontSize=12;startSize=8;endSize=8;strokeWidth=3;" edge="1" parent="1" source="kZlUlrs9YMxouuJOMNI7-29" target="kZlUlrs9YMxouuJOMNI7-46">
          <mxGeometry relative="1" as="geometry" />
        </mxCell>
        <mxCell id="kZlUlrs9YMxouuJOMNI7-29" value="&lt;font style=&quot;font-size: 19px;&quot;&gt;Stage 2&lt;/font&gt;" style="rounded=0;whiteSpace=wrap;html=1;fillColor=#f5f5f5;strokeColor=#666666;verticalAlign=top;align=left;fontStyle=1;fontColor=#333333;" vertex="1" parent="1">
          <mxGeometry x="740" y="-30" width="520" height="130" as="geometry" />
        </mxCell>
        <mxCell id="l80Nnk2uLp3bqs57k5p_-6" style="edgeStyle=orthogonalEdgeStyle;rounded=0;orthogonalLoop=1;jettySize=auto;html=1;fontSize=17;fontColor=#000000;" edge="1" parent="1" source="l80Nnk2uLp3bqs57k5p_-1" target="l80Nnk2uLp3bqs57k5p_-3">
          <mxGeometry relative="1" as="geometry" />
        </mxCell>
        <mxCell id="l80Nnk2uLp3bqs57k5p_-7" value="2: Predict" style="edgeLabel;html=1;align=center;verticalAlign=middle;resizable=0;points=[];fontSize=17;fontColor=#000000;labelBackgroundColor=none;" connectable="0" vertex="1" parent="l80Nnk2uLp3bqs57k5p_-6">
          <mxGeometry x="-0.2722" y="1" relative="1" as="geometry">
            <mxPoint x="-10" y="-21" as="offset" />
          </mxGeometry>
        </mxCell>
        <mxCell id="l80Nnk2uLp3bqs57k5p_-1" value="Unlabeled Data" style="ellipse;whiteSpace=wrap;html=1;fillColor=#FF6666;fontColor=#000000;strokeColor=none;fontSize=17;" vertex="1" parent="1">
          <mxGeometry x="500" y="200" width="120" height="80" as="geometry" />
        </mxCell>
        <mxCell id="l80Nnk2uLp3bqs57k5p_-4" style="edgeStyle=orthogonalEdgeStyle;rounded=0;orthogonalLoop=1;jettySize=auto;html=1;entryX=0;entryY=0.5;entryDx=0;entryDy=0;fontSize=17;fontColor=#000000;" edge="1" parent="1" source="l80Nnk2uLp3bqs57k5p_-2" target="l80Nnk2uLp3bqs57k5p_-3">
          <mxGeometry relative="1" as="geometry" />
        </mxCell>
        <mxCell id="l80Nnk2uLp3bqs57k5p_-5" value="1: Train" style="edgeLabel;html=1;align=center;verticalAlign=middle;resizable=0;points=[];fontSize=17;fontColor=#000000;labelBackgroundColor=none;" connectable="0" vertex="1" parent="l80Nnk2uLp3bqs57k5p_-4">
          <mxGeometry x="-0.2161" y="-1" relative="1" as="geometry">
            <mxPoint y="-21" as="offset" />
          </mxGeometry>
        </mxCell>
        <mxCell id="l80Nnk2uLp3bqs57k5p_-15" style="edgeStyle=orthogonalEdgeStyle;rounded=0;orthogonalLoop=1;jettySize=auto;html=1;fontSize=17;fontColor=#000000;" edge="1" parent="1" source="l80Nnk2uLp3bqs57k5p_-2" target="l80Nnk2uLp3bqs57k5p_-13">
          <mxGeometry relative="1" as="geometry" />
        </mxCell>
        <mxCell id="l80Nnk2uLp3bqs57k5p_-2" value="Labeled Data" style="ellipse;whiteSpace=wrap;html=1;fillColor=#66B2FF;strokeColor=none;fontSize=17;labelBackgroundColor=none;fontColor=#000000;" vertex="1" parent="1">
          <mxGeometry x="40" y="200" width="120" height="80" as="geometry" />
        </mxCell>
        <mxCell id="l80Nnk2uLp3bqs57k5p_-9" style="edgeStyle=orthogonalEdgeStyle;rounded=0;orthogonalLoop=1;jettySize=auto;html=1;fontSize=17;fontColor=#000000;" edge="1" parent="1" source="l80Nnk2uLp3bqs57k5p_-3" target="l80Nnk2uLp3bqs57k5p_-8">
          <mxGeometry relative="1" as="geometry" />
        </mxCell>
        <mxCell id="l80Nnk2uLp3bqs57k5p_-11" value="2: Predict" style="edgeLabel;html=1;align=center;verticalAlign=middle;resizable=0;points=[];fontSize=17;fontColor=#000000;labelBackgroundColor=none;" connectable="0" vertex="1" parent="l80Nnk2uLp3bqs57k5p_-9">
          <mxGeometry x="-0.1089" y="3" relative="1" as="geometry">
            <mxPoint x="37" y="5" as="offset" />
          </mxGeometry>
        </mxCell>
        <mxCell id="l80Nnk2uLp3bqs57k5p_-3" value="Model" style="rounded=1;whiteSpace=wrap;html=1;fontSize=17;fontColor=#000000;" vertex="1" parent="1">
          <mxGeometry x="270" y="210" width="120" height="60" as="geometry" />
        </mxCell>
        <mxCell id="l80Nnk2uLp3bqs57k5p_-14" style="edgeStyle=orthogonalEdgeStyle;rounded=0;orthogonalLoop=1;jettySize=auto;html=1;fontSize=17;fontColor=#000000;" edge="1" parent="1" source="l80Nnk2uLp3bqs57k5p_-8" target="l80Nnk2uLp3bqs57k5p_-13">
          <mxGeometry relative="1" as="geometry" />
        </mxCell>
        <mxCell id="l80Nnk2uLp3bqs57k5p_-8" value="Pseudolabeled Data" style="ellipse;whiteSpace=wrap;html=1;fillColor=#FF6666;fontSize=17;strokeColor=none;fontColor=#000000;" vertex="1" parent="1">
          <mxGeometry x="270" y="370" width="120" height="80" as="geometry" />
        </mxCell>
        <mxCell id="l80Nnk2uLp3bqs57k5p_-16" style="rounded=0;orthogonalLoop=1;jettySize=auto;html=1;fontSize=17;fontColor=#000000;" edge="1" parent="1" source="l80Nnk2uLp3bqs57k5p_-13" target="l80Nnk2uLp3bqs57k5p_-3">
          <mxGeometry relative="1" as="geometry" />
        </mxCell>
        <mxCell id="l80Nnk2uLp3bqs57k5p_-13" value="Combined Data" style="ellipse;whiteSpace=wrap;html=1;gradientColor=#FF6666;gradientDirection=east;fillColor=#66B2FF;fontSize=17;strokeColor=none;fontColor=#000000;" vertex="1" parent="1">
          <mxGeometry x="40" y="370" width="120" height="80" as="geometry" />
        </mxCell>
        <mxCell id="l80Nnk2uLp3bqs57k5p_-25" style="edgeStyle=orthogonalEdgeStyle;rounded=0;orthogonalLoop=1;jettySize=auto;html=1;fontColor=#000000;fontSize=15;" edge="1" parent="1" source="l80Nnk2uLp3bqs57k5p_-18" target="l80Nnk2uLp3bqs57k5p_-20">
          <mxGeometry relative="1" as="geometry" />
        </mxCell>
        <mxCell id="l80Nnk2uLp3bqs57k5p_-49" style="edgeStyle=orthogonalEdgeStyle;rounded=0;orthogonalLoop=1;jettySize=auto;html=1;entryX=0.25;entryY=0;entryDx=0;entryDy=0;fontColor=#000000;fontSize=15;" edge="1" parent="1" source="l80Nnk2uLp3bqs57k5p_-18" target="l80Nnk2uLp3bqs57k5p_-19">
          <mxGeometry relative="1" as="geometry" />
        </mxCell>
        <mxCell id="l80Nnk2uLp3bqs57k5p_-50" style="edgeStyle=orthogonalEdgeStyle;rounded=0;orthogonalLoop=1;jettySize=auto;html=1;entryX=0.5;entryY=0;entryDx=0;entryDy=0;fontColor=#000000;fontSize=15;" edge="1" parent="1" source="l80Nnk2uLp3bqs57k5p_-18" target="l80Nnk2uLp3bqs57k5p_-42">
          <mxGeometry relative="1" as="geometry">
            <Array as="points">
              <mxPoint x="410" y="673" />
              <mxPoint x="330" y="673" />
            </Array>
          </mxGeometry>
        </mxCell>
        <mxCell id="l80Nnk2uLp3bqs57k5p_-59" style="edgeStyle=orthogonalEdgeStyle;rounded=0;orthogonalLoop=1;jettySize=auto;html=1;entryX=0.5;entryY=0;entryDx=0;entryDy=0;fontColor=#000000;fontSize=15;" edge="1" parent="1" source="l80Nnk2uLp3bqs57k5p_-18" target="l80Nnk2uLp3bqs57k5p_-41">
          <mxGeometry relative="1" as="geometry">
            <Array as="points">
              <mxPoint x="410" y="820" />
              <mxPoint x="560" y="820" />
            </Array>
          </mxGeometry>
        </mxCell>
        <mxCell id="l80Nnk2uLp3bqs57k5p_-18" value="Labeled Data" style="ellipse;whiteSpace=wrap;html=1;fillColor=#66B2FF;strokeColor=none;fontColor=#000000;fontSize=15;" vertex="1" parent="1">
          <mxGeometry x="350" y="545" width="120" height="80" as="geometry" />
        </mxCell>
        <mxCell id="l80Nnk2uLp3bqs57k5p_-28" style="edgeStyle=orthogonalEdgeStyle;rounded=0;orthogonalLoop=1;jettySize=auto;html=1;entryX=0;entryY=0.5;entryDx=0;entryDy=0;fontColor=#000000;fontSize=15;" edge="1" parent="1" source="l80Nnk2uLp3bqs57k5p_-19" target="l80Nnk2uLp3bqs57k5p_-26">
          <mxGeometry relative="1" as="geometry" />
        </mxCell>
        <mxCell id="l80Nnk2uLp3bqs57k5p_-19" value="Model 1" style="rounded=1;whiteSpace=wrap;html=1;fontColor=#000000;fontSize=15;" vertex="1" parent="1">
          <mxGeometry x="130" y="800" width="120" height="60" as="geometry" />
        </mxCell>
        <mxCell id="l80Nnk2uLp3bqs57k5p_-29" style="edgeStyle=orthogonalEdgeStyle;rounded=0;orthogonalLoop=1;jettySize=auto;html=1;exitX=0;exitY=0.5;exitDx=0;exitDy=0;entryX=1;entryY=0.5;entryDx=0;entryDy=0;fontColor=#000000;fontSize=15;" edge="1" parent="1" source="l80Nnk2uLp3bqs57k5p_-20" target="l80Nnk2uLp3bqs57k5p_-27">
          <mxGeometry relative="1" as="geometry" />
        </mxCell>
        <mxCell id="l80Nnk2uLp3bqs57k5p_-20" value="Model 2" style="rounded=1;whiteSpace=wrap;html=1;fontColor=#000000;fontSize=15;" vertex="1" parent="1">
          <mxGeometry x="640" y="800" width="120" height="60" as="geometry" />
        </mxCell>
        <mxCell id="l80Nnk2uLp3bqs57k5p_-22" style="edgeStyle=orthogonalEdgeStyle;rounded=0;orthogonalLoop=1;jettySize=auto;html=1;fontColor=#000000;fontSize=15;" edge="1" parent="1" source="l80Nnk2uLp3bqs57k5p_-21" target="l80Nnk2uLp3bqs57k5p_-19">
          <mxGeometry relative="1" as="geometry" />
        </mxCell>
        <mxCell id="l80Nnk2uLp3bqs57k5p_-23" style="edgeStyle=orthogonalEdgeStyle;rounded=0;orthogonalLoop=1;jettySize=auto;html=1;fontColor=#000000;fontSize=15;exitX=1;exitY=0.5;exitDx=0;exitDy=0;" edge="1" parent="1" source="l80Nnk2uLp3bqs57k5p_-21" target="l80Nnk2uLp3bqs57k5p_-20">
          <mxGeometry relative="1" as="geometry">
            <Array as="points">
              <mxPoint x="740" y="1010" />
            </Array>
          </mxGeometry>
        </mxCell>
        <mxCell id="l80Nnk2uLp3bqs57k5p_-21" value="Unlabeled Data" style="ellipse;whiteSpace=wrap;html=1;fillColor=#FF6666;fontColor=#000000;strokeColor=none;fontSize=15;" vertex="1" parent="1">
          <mxGeometry x="350" y="970" width="120" height="80" as="geometry" />
        </mxCell>
        <mxCell id="l80Nnk2uLp3bqs57k5p_-46" style="edgeStyle=orthogonalEdgeStyle;rounded=0;orthogonalLoop=1;jettySize=auto;html=1;fontColor=#000000;fontSize=15;" edge="1" parent="1" source="l80Nnk2uLp3bqs57k5p_-26" target="l80Nnk2uLp3bqs57k5p_-41">
          <mxGeometry relative="1" as="geometry" />
        </mxCell>
        <mxCell id="l80Nnk2uLp3bqs57k5p_-26" value="Pseudolabels predicted by Model 1" style="ellipse;whiteSpace=wrap;html=1;gradientColor=none;gradientDirection=east;fillColor=#FF6666;strokeColor=none;fontColor=#000000;fontSize=15;" vertex="1" parent="1">
          <mxGeometry x="290" y="850" width="120" height="80" as="geometry" />
        </mxCell>
        <mxCell id="l80Nnk2uLp3bqs57k5p_-45" style="edgeStyle=orthogonalEdgeStyle;rounded=0;orthogonalLoop=1;jettySize=auto;html=1;entryX=1;entryY=0.5;entryDx=0;entryDy=0;fontColor=#000000;fontSize=15;" edge="1" parent="1" source="l80Nnk2uLp3bqs57k5p_-27" target="l80Nnk2uLp3bqs57k5p_-42">
          <mxGeometry relative="1" as="geometry" />
        </mxCell>
        <mxCell id="l80Nnk2uLp3bqs57k5p_-27" value="Pseudolabels predicted by Model 2" style="ellipse;whiteSpace=wrap;html=1;gradientColor=none;gradientDirection=east;fillColor=#FF6666;strokeColor=none;fontColor=#000000;fontSize=15;" vertex="1" parent="1">
          <mxGeometry x="480" y="720" width="120" height="80" as="geometry" />
        </mxCell>
        <mxCell id="l80Nnk2uLp3bqs57k5p_-34" value="1: Train" style="edgeLabel;html=1;align=center;verticalAlign=middle;resizable=0;points=[];fontColor=#000000;fontSize=15;labelBackgroundColor=none;" connectable="0" vertex="1" parent="1">
          <mxGeometry x="560" y="570" as="geometry" />
        </mxCell>
        <mxCell id="l80Nnk2uLp3bqs57k5p_-35" value="2: Predict" style="edgeLabel;html=1;align=center;verticalAlign=middle;resizable=0;points=[];fontColor=#000000;fontSize=15;labelBackgroundColor=none;" connectable="0" vertex="1" parent="1">
          <mxGeometry x="600" y="1000" as="geometry" />
        </mxCell>
        <mxCell id="l80Nnk2uLp3bqs57k5p_-36" value="2: Predict" style="edgeLabel;html=1;align=center;verticalAlign=middle;resizable=0;points=[];fontColor=#000000;fontSize=15;labelBackgroundColor=none;" connectable="0" vertex="1" parent="1">
          <mxGeometry x="280" y="1000" as="geometry" />
        </mxCell>
        <mxCell id="l80Nnk2uLp3bqs57k5p_-37" value="3: Combine" style="edgeLabel;html=1;align=center;verticalAlign=middle;resizable=0;points=[];fontSize=17;fontColor=#000000;labelBackgroundColor=none;" connectable="0" vertex="1" parent="1">
          <mxGeometry x="220" y="419.99758620689664" as="geometry">
            <mxPoint x="4" y="10" as="offset" />
          </mxGeometry>
        </mxCell>
        <mxCell id="l80Nnk2uLp3bqs57k5p_-38" value="3: Combine" style="edgeLabel;html=1;align=center;verticalAlign=middle;resizable=0;points=[];fontSize=17;fontColor=#000000;labelBackgroundColor=none;" connectable="0" vertex="1" parent="1">
          <mxGeometry x="50" y="309.99758620689664" as="geometry">
            <mxPoint x="4" y="10" as="offset" />
          </mxGeometry>
        </mxCell>
        <mxCell id="l80Nnk2uLp3bqs57k5p_-40" value="4: Train" style="edgeLabel;html=1;align=center;verticalAlign=middle;resizable=0;points=[];fontSize=17;rotation=-40;fontColor=#000000;labelBackgroundColor=none;" connectable="0" vertex="1" parent="1">
          <mxGeometry x="219.99827586206908" y="300" as="geometry">
            <mxPoint x="-13" as="offset" />
          </mxGeometry>
        </mxCell>
        <mxCell id="l80Nnk2uLp3bqs57k5p_-47" style="edgeStyle=orthogonalEdgeStyle;rounded=0;orthogonalLoop=1;jettySize=auto;html=1;entryX=0.25;entryY=1;entryDx=0;entryDy=0;fontColor=#000000;fontSize=15;" edge="1" parent="1" source="l80Nnk2uLp3bqs57k5p_-41" target="l80Nnk2uLp3bqs57k5p_-20">
          <mxGeometry relative="1" as="geometry" />
        </mxCell>
        <mxCell id="l80Nnk2uLp3bqs57k5p_-41" value="Combined Data" style="ellipse;whiteSpace=wrap;html=1;gradientColor=#FF6666;gradientDirection=east;fillColor=#66B2FF;fontSize=15;strokeColor=none;fontColor=#000000;" vertex="1" parent="1">
          <mxGeometry x="500" y="850" width="120" height="80" as="geometry" />
        </mxCell>
        <mxCell id="l80Nnk2uLp3bqs57k5p_-43" style="edgeStyle=orthogonalEdgeStyle;rounded=0;orthogonalLoop=1;jettySize=auto;html=1;entryX=0.75;entryY=0;entryDx=0;entryDy=0;fontColor=#000000;fontSize=15;" edge="1" parent="1" source="l80Nnk2uLp3bqs57k5p_-42" target="l80Nnk2uLp3bqs57k5p_-19">
          <mxGeometry relative="1" as="geometry" />
        </mxCell>
        <mxCell id="l80Nnk2uLp3bqs57k5p_-42" value="Combined Data" style="ellipse;whiteSpace=wrap;html=1;gradientColor=#FF6666;gradientDirection=east;fillColor=#66B2FF;fontSize=15;strokeColor=none;fontColor=#000000;" vertex="1" parent="1">
          <mxGeometry x="270" y="720" width="120" height="80" as="geometry" />
        </mxCell>
        <mxCell id="l80Nnk2uLp3bqs57k5p_-52" value="1: Train" style="edgeLabel;html=1;align=center;verticalAlign=middle;resizable=0;points=[];fontColor=#000000;fontSize=15;labelBackgroundColor=none;" connectable="0" vertex="1" parent="1">
          <mxGeometry x="270" y="570" as="geometry" />
        </mxCell>
        <mxCell id="l80Nnk2uLp3bqs57k5p_-54" value="2: Predict" style="edgeLabel;html=1;align=center;verticalAlign=middle;resizable=0;points=[];fontColor=#000000;fontSize=15;labelBackgroundColor=none;" connectable="0" vertex="1" parent="1">
          <mxGeometry x="650" y="740" as="geometry" />
        </mxCell>
        <mxCell id="l80Nnk2uLp3bqs57k5p_-55" value="2: Predict" style="edgeLabel;html=1;align=center;verticalAlign=middle;resizable=0;points=[];fontColor=#000000;fontSize=15;labelBackgroundColor=none;" connectable="0" vertex="1" parent="1">
          <mxGeometry x="250" y="900" as="geometry" />
        </mxCell>
        <mxCell id="l80Nnk2uLp3bqs57k5p_-58" value="3: Combine" style="edgeLabel;html=1;align=center;verticalAlign=middle;resizable=0;points=[];fontColor=#000000;fontSize=15;labelBackgroundColor=none;" connectable="0" vertex="1" parent="1">
          <mxGeometry x="460" y="650" as="geometry" />
        </mxCell>
        <mxCell id="l80Nnk2uLp3bqs57k5p_-60" value="4: Train" style="edgeLabel;html=1;align=center;verticalAlign=middle;resizable=0;points=[];fontColor=#000000;fontSize=15;labelBackgroundColor=none;" connectable="0" vertex="1" parent="1">
          <mxGeometry x="240" y="750" as="geometry" />
        </mxCell>
        <mxCell id="l80Nnk2uLp3bqs57k5p_-62" value="4: Train" style="edgeLabel;html=1;align=center;verticalAlign=middle;resizable=0;points=[];fontColor=#000000;fontSize=15;labelBackgroundColor=none;" connectable="0" vertex="1" parent="1">
          <mxGeometry x="650" y="900" as="geometry" />
        </mxCell>
        <mxCell id="kZlUlrs9YMxouuJOMNI7-1" value="Model" style="rounded=1;whiteSpace=wrap;html=1;fontSize=17;fontColor=#000000;" vertex="1" parent="1">
          <mxGeometry x="1610" y="80" width="120" height="60" as="geometry" />
        </mxCell>
        <mxCell id="kZlUlrs9YMxouuJOMNI7-14" style="edgeStyle=none;curved=1;rounded=0;orthogonalLoop=1;jettySize=auto;html=1;fontSize=12;startSize=8;endSize=8;" edge="1" parent="1" source="kZlUlrs9YMxouuJOMNI7-4" target="kZlUlrs9YMxouuJOMNI7-7">
          <mxGeometry relative="1" as="geometry" />
        </mxCell>
        <mxCell id="kZlUlrs9YMxouuJOMNI7-4" value="Labeled Data" style="ellipse;whiteSpace=wrap;html=1;fillColor=#66B2FF;strokeColor=none;fontSize=17;labelBackgroundColor=none;fontColor=#000000;" vertex="1" parent="1">
          <mxGeometry x="1790" y="-40" width="120" height="80" as="geometry" />
        </mxCell>
        <mxCell id="kZlUlrs9YMxouuJOMNI7-17" style="edgeStyle=none;curved=1;rounded=0;orthogonalLoop=1;jettySize=auto;html=1;fontSize=12;startSize=8;endSize=8;" edge="1" parent="1" source="kZlUlrs9YMxouuJOMNI7-6" target="kZlUlrs9YMxouuJOMNI7-16">
          <mxGeometry relative="1" as="geometry" />
        </mxCell>
        <mxCell id="kZlUlrs9YMxouuJOMNI7-6" value="Unlabeled Data" style="ellipse;whiteSpace=wrap;html=1;fillColor=#66B2FF;fontColor=#000000;strokeColor=none;fontSize=17;" vertex="1" parent="1">
          <mxGeometry x="761" width="120" height="80" as="geometry" />
        </mxCell>
        <mxCell id="kZlUlrs9YMxouuJOMNI7-15" style="edgeStyle=none;curved=1;rounded=0;orthogonalLoop=1;jettySize=auto;html=1;fontSize=12;startSize=8;endSize=8;" edge="1" parent="1" source="kZlUlrs9YMxouuJOMNI7-7" target="kZlUlrs9YMxouuJOMNI7-1">
          <mxGeometry relative="1" as="geometry" />
        </mxCell>
        <mxCell id="kZlUlrs9YMxouuJOMNI7-7" value="Combined Data" style="ellipse;whiteSpace=wrap;html=1;gradientColor=#FF6666;gradientDirection=west;fillColor=#66B2FF;fontSize=17;strokeColor=none;fontColor=#000000;" vertex="1" parent="1">
          <mxGeometry x="1610" y="-40" width="120" height="80" as="geometry" />
        </mxCell>
        <mxCell id="kZlUlrs9YMxouuJOMNI7-13" style="edgeStyle=none;curved=1;rounded=0;orthogonalLoop=1;jettySize=auto;html=1;fontSize=12;startSize=8;endSize=8;" edge="1" parent="1" source="kZlUlrs9YMxouuJOMNI7-12" target="kZlUlrs9YMxouuJOMNI7-7">
          <mxGeometry relative="1" as="geometry" />
        </mxCell>
        <mxCell id="kZlUlrs9YMxouuJOMNI7-12" value="Pseudolabeled Data" style="ellipse;whiteSpace=wrap;html=1;fillColor=#FF6666;fontSize=17;strokeColor=none;fontColor=#000000;" vertex="1" parent="1">
          <mxGeometry x="1420" y="-40" width="120" height="80" as="geometry" />
        </mxCell>
        <mxCell id="kZlUlrs9YMxouuJOMNI7-19" style="edgeStyle=none;curved=1;rounded=0;orthogonalLoop=1;jettySize=auto;html=1;fontSize=12;startSize=8;endSize=8;" edge="1" parent="1" source="kZlUlrs9YMxouuJOMNI7-16" target="kZlUlrs9YMxouuJOMNI7-18">
          <mxGeometry relative="1" as="geometry" />
        </mxCell>
        <mxCell id="kZlUlrs9YMxouuJOMNI7-16" value="Model" style="rounded=1;whiteSpace=wrap;html=1;fontSize=17;fontColor=#000000;" vertex="1" parent="1">
          <mxGeometry x="941" y="10" width="120" height="60" as="geometry" />
        </mxCell>
        <mxCell id="kZlUlrs9YMxouuJOMNI7-18" value="Pseudolabeled Data" style="ellipse;whiteSpace=wrap;html=1;fillColor=#FF6666;fontSize=17;strokeColor=none;fontColor=#000000;" vertex="1" parent="1">
          <mxGeometry x="1121" width="120" height="80" as="geometry" />
        </mxCell>
        <mxCell id="kZlUlrs9YMxouuJOMNI7-20" value="Model" style="rounded=1;whiteSpace=wrap;html=1;fontSize=17;fontColor=#000000;" vertex="1" parent="1">
          <mxGeometry x="940.5" y="-240" width="120" height="60" as="geometry" />
        </mxCell>
        <mxCell id="kZlUlrs9YMxouuJOMNI7-27" style="edgeStyle=none;curved=1;rounded=0;orthogonalLoop=1;jettySize=auto;html=1;fontSize=12;startSize=8;endSize=8;" edge="1" parent="1" source="kZlUlrs9YMxouuJOMNI7-22" target="kZlUlrs9YMxouuJOMNI7-20">
          <mxGeometry relative="1" as="geometry" />
        </mxCell>
        <mxCell id="kZlUlrs9YMxouuJOMNI7-22" value="Labeled Data" style="ellipse;whiteSpace=wrap;html=1;fillColor=#66B2FF;strokeColor=none;fontSize=17;labelBackgroundColor=none;fontColor=#000000;" vertex="1" parent="1">
          <mxGeometry x="940.5" y="-390" width="120" height="80" as="geometry" />
        </mxCell>
        <mxCell id="kZlUlrs9YMxouuJOMNI7-46" value="Model" style="rounded=1;whiteSpace=wrap;html=1;fontSize=17;fontColor=#000000;" vertex="1" parent="1">
          <mxGeometry x="941" y="220" width="120" height="60" as="geometry" />
        </mxCell>
        <mxCell id="kZlUlrs9YMxouuJOMNI7-48" style="edgeStyle=none;curved=1;rounded=0;orthogonalLoop=1;jettySize=auto;html=1;exitX=0;exitY=1;exitDx=0;exitDy=0;entryX=0.75;entryY=1;entryDx=0;entryDy=0;fontSize=12;startSize=8;endSize=8;strokeWidth=3;" edge="1" parent="1" source="kZlUlrs9YMxouuJOMNI7-49" target="kZlUlrs9YMxouuJOMNI7-54">
          <mxGeometry relative="1" as="geometry">
            <Array as="points">
              <mxPoint x="1430" y="1205" />
            </Array>
          </mxGeometry>
        </mxCell>
        <mxCell id="kZlUlrs9YMxouuJOMNI7-49" value="&lt;font style=&quot;font-size: 19px;&quot;&gt;&lt;b&gt;Stage 3&lt;/b&gt;&lt;/font&gt;" style="rounded=0;whiteSpace=wrap;html=1;fillColor=#f5f5f5;strokeColor=#666666;align=left;verticalAlign=top;fontColor=#333333;" vertex="1" parent="1">
          <mxGeometry x="1610" y="787.5" width="530" height="320" as="geometry" />
        </mxCell>
        <mxCell id="kZlUlrs9YMxouuJOMNI7-50" style="edgeStyle=none;curved=1;rounded=0;orthogonalLoop=1;jettySize=auto;html=1;fontSize=12;startSize=8;endSize=8;strokeWidth=3;" edge="1" parent="1" source="kZlUlrs9YMxouuJOMNI7-51" target="kZlUlrs9YMxouuJOMNI7-54">
          <mxGeometry relative="1" as="geometry" />
        </mxCell>
        <mxCell id="kZlUlrs9YMxouuJOMNI7-51" value="&lt;font style=&quot;font-size: 19px;&quot;&gt;&lt;b&gt;Stage 1&lt;/b&gt;&lt;/font&gt;" style="rounded=0;whiteSpace=wrap;html=1;fillColor=#f5f5f5;strokeColor=#666666;align=left;verticalAlign=top;labelPosition=center;verticalLabelPosition=middle;fontColor=#333333;" vertex="1" parent="1">
          <mxGeometry x="1006" y="480" width="310" height="230" as="geometry" />
        </mxCell>
        <mxCell id="kZlUlrs9YMxouuJOMNI7-52" style="edgeStyle=none;curved=1;rounded=0;orthogonalLoop=1;jettySize=auto;html=1;exitX=0.75;exitY=0;exitDx=0;exitDy=0;entryX=0;entryY=0;entryDx=0;entryDy=0;fontSize=12;startSize=8;endSize=8;strokeWidth=3;" edge="1" parent="1" source="kZlUlrs9YMxouuJOMNI7-54" target="kZlUlrs9YMxouuJOMNI7-49">
          <mxGeometry relative="1" as="geometry">
            <Array as="points">
              <mxPoint x="1430" y="660" />
            </Array>
          </mxGeometry>
        </mxCell>
        <mxCell id="kZlUlrs9YMxouuJOMNI7-53" style="edgeStyle=none;curved=1;rounded=0;orthogonalLoop=1;jettySize=auto;html=1;fontSize=12;startSize=8;endSize=8;strokeWidth=3;" edge="1" parent="1" source="kZlUlrs9YMxouuJOMNI7-54" target="kZlUlrs9YMxouuJOMNI7-70">
          <mxGeometry relative="1" as="geometry" />
        </mxCell>
        <mxCell id="kZlUlrs9YMxouuJOMNI7-54" value="&lt;font style=&quot;font-size: 19px;&quot;&gt;Stage 2&lt;/font&gt;" style="rounded=0;whiteSpace=wrap;html=1;fillColor=#f5f5f5;strokeColor=#666666;verticalAlign=top;align=left;fontStyle=1;fontColor=#333333;" vertex="1" parent="1">
          <mxGeometry x="900" y="820" width="520" height="230" as="geometry" />
        </mxCell>
        <mxCell id="kZlUlrs9YMxouuJOMNI7-55" value="Model 1" style="rounded=1;whiteSpace=wrap;html=1;fontSize=17;fillColor=#d5e8d4;strokeColor=#82b366;" vertex="1" parent="1">
          <mxGeometry x="1630" y="927.5" width="120" height="60" as="geometry" />
        </mxCell>
        <mxCell id="kZlUlrs9YMxouuJOMNI7-56" style="edgeStyle=none;curved=1;rounded=0;orthogonalLoop=1;jettySize=auto;html=1;fontSize=12;startSize=8;endSize=8;" edge="1" parent="1" source="kZlUlrs9YMxouuJOMNI7-57" target="kZlUlrs9YMxouuJOMNI7-61">
          <mxGeometry relative="1" as="geometry" />
        </mxCell>
        <mxCell id="kZlUlrs9YMxouuJOMNI7-57" value="Labeled Data" style="ellipse;whiteSpace=wrap;html=1;fillColor=#66B2FF;strokeColor=none;fontSize=17;labelBackgroundColor=none;fontColor=#000000;" vertex="1" parent="1">
          <mxGeometry x="2000" y="822.5" width="120" height="80" as="geometry" />
        </mxCell>
        <mxCell id="kZlUlrs9YMxouuJOMNI7-58" style="edgeStyle=none;curved=1;rounded=0;orthogonalLoop=1;jettySize=auto;html=1;fontSize=12;startSize=8;endSize=8;" edge="1" parent="1" source="kZlUlrs9YMxouuJOMNI7-59" target="kZlUlrs9YMxouuJOMNI7-65">
          <mxGeometry relative="1" as="geometry" />
        </mxCell>
        <mxCell id="kZlUlrs9YMxouuJOMNI7-59" value="Unlabeled Data" style="ellipse;whiteSpace=wrap;html=1;fillColor=#66B2FF;fontColor=#000000;strokeColor=none;fontSize=17;" vertex="1" parent="1">
          <mxGeometry x="920" y="850" width="120" height="80" as="geometry" />
        </mxCell>
        <mxCell id="kZlUlrs9YMxouuJOMNI7-89" style="edgeStyle=orthogonalEdgeStyle;rounded=0;orthogonalLoop=1;jettySize=auto;html=1;entryX=1;entryY=0.25;entryDx=0;entryDy=0;fontSize=12;startSize=8;endSize=8;" edge="1" parent="1" source="kZlUlrs9YMxouuJOMNI7-61" target="kZlUlrs9YMxouuJOMNI7-55">
          <mxGeometry relative="1" as="geometry">
            <Array as="points">
              <mxPoint x="1880" y="942.5" />
            </Array>
          </mxGeometry>
        </mxCell>
        <mxCell id="kZlUlrs9YMxouuJOMNI7-61" value="Combined Data" style="ellipse;whiteSpace=wrap;html=1;gradientColor=#E1D5E7;gradientDirection=west;fillColor=#66B2FF;fontSize=17;strokeColor=none;fontColor=#000000;" vertex="1" parent="1">
          <mxGeometry x="1820" y="822.5" width="120" height="80" as="geometry" />
        </mxCell>
        <mxCell id="kZlUlrs9YMxouuJOMNI7-62" style="edgeStyle=none;curved=1;rounded=0;orthogonalLoop=1;jettySize=auto;html=1;fontSize=12;startSize=8;endSize=8;" edge="1" parent="1" source="kZlUlrs9YMxouuJOMNI7-63" target="kZlUlrs9YMxouuJOMNI7-61">
          <mxGeometry relative="1" as="geometry" />
        </mxCell>
        <mxCell id="kZlUlrs9YMxouuJOMNI7-63" value="M2 Pseudolabeled Data" style="ellipse;whiteSpace=wrap;html=1;fillColor=#E1D5E7;fontSize=17;strokeColor=#9673a6;" vertex="1" parent="1">
          <mxGeometry x="1630" y="822.5" width="120" height="80" as="geometry" />
        </mxCell>
        <mxCell id="kZlUlrs9YMxouuJOMNI7-64" style="edgeStyle=none;curved=1;rounded=0;orthogonalLoop=1;jettySize=auto;html=1;fontSize=12;startSize=8;endSize=8;" edge="1" parent="1" source="kZlUlrs9YMxouuJOMNI7-65" target="kZlUlrs9YMxouuJOMNI7-66">
          <mxGeometry relative="1" as="geometry" />
        </mxCell>
        <mxCell id="kZlUlrs9YMxouuJOMNI7-65" value="Model 1" style="rounded=1;whiteSpace=wrap;html=1;fontSize=17;fillColor=#d5e8d4;strokeColor=#82b366;" vertex="1" parent="1">
          <mxGeometry x="1100" y="860" width="120" height="60" as="geometry" />
        </mxCell>
        <mxCell id="kZlUlrs9YMxouuJOMNI7-66" value="M1 Pseudolabeled Data" style="ellipse;whiteSpace=wrap;html=1;fillColor=#d5e8d4;fontSize=17;strokeColor=#82b366;" vertex="1" parent="1">
          <mxGeometry x="1280" y="850" width="120" height="80" as="geometry" />
        </mxCell>
        <mxCell id="kZlUlrs9YMxouuJOMNI7-67" value="Model 1" style="rounded=1;whiteSpace=wrap;html=1;fontSize=17;fillColor=#d5e8d4;strokeColor=#82b366;" vertex="1" parent="1">
          <mxGeometry x="1032.25" y="640" width="120" height="60" as="geometry" />
        </mxCell>
        <mxCell id="kZlUlrs9YMxouuJOMNI7-68" style="edgeStyle=none;curved=1;rounded=0;orthogonalLoop=1;jettySize=auto;html=1;fontSize=12;startSize=8;endSize=8;" edge="1" parent="1" source="kZlUlrs9YMxouuJOMNI7-69" target="kZlUlrs9YMxouuJOMNI7-67">
          <mxGeometry relative="1" as="geometry" />
        </mxCell>
        <mxCell id="kZlUlrs9YMxouuJOMNI7-74" style="edgeStyle=none;curved=1;rounded=0;orthogonalLoop=1;jettySize=auto;html=1;fontSize=12;startSize=8;endSize=8;" edge="1" parent="1" source="kZlUlrs9YMxouuJOMNI7-69" target="kZlUlrs9YMxouuJOMNI7-71">
          <mxGeometry relative="1" as="geometry" />
        </mxCell>
        <mxCell id="kZlUlrs9YMxouuJOMNI7-69" value="Labeled Data" style="ellipse;whiteSpace=wrap;html=1;fillColor=#66B2FF;strokeColor=none;fontSize=17;labelBackgroundColor=none;fontColor=#000000;" vertex="1" parent="1">
          <mxGeometry x="1101" y="505" width="120" height="80" as="geometry" />
        </mxCell>
        <mxCell id="kZlUlrs9YMxouuJOMNI7-70" value="Model 1" style="rounded=1;whiteSpace=wrap;html=1;fontSize=17;fillColor=#d5e8d4;strokeColor=#82b366;" vertex="1" parent="1">
          <mxGeometry x="1101" y="1130" width="120" height="60" as="geometry" />
        </mxCell>
        <mxCell id="kZlUlrs9YMxouuJOMNI7-71" value="Model 2" style="rounded=1;whiteSpace=wrap;html=1;fontSize=17;fillColor=#e1d5e7;strokeColor=#9673a6;" vertex="1" parent="1">
          <mxGeometry x="1172.75" y="640" width="120" height="60" as="geometry" />
        </mxCell>
        <mxCell id="kZlUlrs9YMxouuJOMNI7-78" style="edgeStyle=none;curved=1;rounded=0;orthogonalLoop=1;jettySize=auto;html=1;fontSize=12;startSize=8;endSize=8;" edge="1" parent="1" source="kZlUlrs9YMxouuJOMNI7-75" target="kZlUlrs9YMxouuJOMNI7-76">
          <mxGeometry relative="1" as="geometry" />
        </mxCell>
        <mxCell id="kZlUlrs9YMxouuJOMNI7-75" value="Unlabeled Data" style="ellipse;whiteSpace=wrap;html=1;fillColor=#66B2FF;fontColor=#000000;strokeColor=none;fontSize=17;" vertex="1" parent="1">
          <mxGeometry x="921" y="955" width="120" height="80" as="geometry" />
        </mxCell>
        <mxCell id="kZlUlrs9YMxouuJOMNI7-79" style="edgeStyle=none;curved=1;rounded=0;orthogonalLoop=1;jettySize=auto;html=1;fontSize=12;startSize=8;endSize=8;" edge="1" parent="1" source="kZlUlrs9YMxouuJOMNI7-76" target="kZlUlrs9YMxouuJOMNI7-77">
          <mxGeometry relative="1" as="geometry" />
        </mxCell>
        <mxCell id="kZlUlrs9YMxouuJOMNI7-76" value="Model 2" style="rounded=1;whiteSpace=wrap;html=1;fontSize=17;fillColor=#e1d5e7;strokeColor=#9673a6;" vertex="1" parent="1">
          <mxGeometry x="1101" y="965" width="120" height="60" as="geometry" />
        </mxCell>
        <mxCell id="kZlUlrs9YMxouuJOMNI7-77" value="M2 Pseudolabeled Data" style="ellipse;whiteSpace=wrap;html=1;fillColor=#e1d5e7;fontSize=17;strokeColor=#9673a6;" vertex="1" parent="1">
          <mxGeometry x="1281" y="955" width="120" height="80" as="geometry" />
        </mxCell>
        <mxCell id="kZlUlrs9YMxouuJOMNI7-80" value="Model 2" style="rounded=1;whiteSpace=wrap;html=1;fontSize=17;fillColor=#e1d5e7;strokeColor=#9673a6;" vertex="1" parent="1">
          <mxGeometry x="2000" y="927.5" width="120" height="60" as="geometry" />
        </mxCell>
        <mxCell id="kZlUlrs9YMxouuJOMNI7-85" style="edgeStyle=none;curved=1;rounded=0;orthogonalLoop=1;jettySize=auto;html=1;fontSize=12;startSize=8;endSize=8;" edge="1" parent="1" source="kZlUlrs9YMxouuJOMNI7-81" target="kZlUlrs9YMxouuJOMNI7-82">
          <mxGeometry relative="1" as="geometry" />
        </mxCell>
        <mxCell id="kZlUlrs9YMxouuJOMNI7-81" value="Labeled Data" style="ellipse;whiteSpace=wrap;html=1;fillColor=#66B2FF;strokeColor=none;fontSize=17;labelBackgroundColor=none;fontColor=#000000;" vertex="1" parent="1">
          <mxGeometry x="1998" y="1007.5" width="120" height="80" as="geometry" />
        </mxCell>
        <mxCell id="kZlUlrs9YMxouuJOMNI7-88" style="edgeStyle=orthogonalEdgeStyle;rounded=0;orthogonalLoop=1;jettySize=auto;html=1;entryX=0;entryY=0.75;entryDx=0;entryDy=0;fontSize=12;startSize=8;endSize=8;" edge="1" parent="1" source="kZlUlrs9YMxouuJOMNI7-82" target="kZlUlrs9YMxouuJOMNI7-80">
          <mxGeometry relative="1" as="geometry">
            <Array as="points">
              <mxPoint x="1880" y="972.5" />
            </Array>
          </mxGeometry>
        </mxCell>
        <mxCell id="kZlUlrs9YMxouuJOMNI7-82" value="Combined Data" style="ellipse;whiteSpace=wrap;html=1;gradientColor=#D5E8D4;gradientDirection=west;fillColor=#66B2FF;fontSize=17;strokeColor=none;fontColor=#000000;" vertex="1" parent="1">
          <mxGeometry x="1818" y="1007.5" width="120" height="80" as="geometry" />
        </mxCell>
        <mxCell id="kZlUlrs9YMxouuJOMNI7-84" style="edgeStyle=none;curved=1;rounded=0;orthogonalLoop=1;jettySize=auto;html=1;fontSize=12;startSize=8;endSize=8;" edge="1" parent="1" source="kZlUlrs9YMxouuJOMNI7-83" target="kZlUlrs9YMxouuJOMNI7-82">
          <mxGeometry relative="1" as="geometry" />
        </mxCell>
        <mxCell id="kZlUlrs9YMxouuJOMNI7-83" value="M1 Pseudolabeled Data" style="ellipse;whiteSpace=wrap;html=1;fillColor=#D5E8D4;fontSize=17;strokeColor=#82b366;" vertex="1" parent="1">
          <mxGeometry x="1628" y="1007.5" width="120" height="80" as="geometry" />
        </mxCell>
      </root>
    </mxGraphModel>
  </diagram>
</mxfile>
